<mxfile host="65bd71144e">
    <diagram id="HIP3nbAZw_EuaXWnEj3U" name="Page-1">
        <mxGraphModel dx="702" dy="477" grid="1" gridSize="10" guides="1" tooltips="1" connect="1" arrows="1" fold="1" page="1" pageScale="1" pageWidth="850" pageHeight="1100" math="0" shadow="0">
            <root>
                <mxCell id="0"/>
                <mxCell id="1" parent="0"/>
                <mxCell id="7" value="http://ics2o.mths.ca" style="swimlane;whiteSpace=wrap;html=1;" parent="1" vertex="1">
                    <mxGeometry x="40" y="40" width="760" height="480" as="geometry"/>
                </mxCell>
                <mxCell id="8" value="&lt;font style=&quot;font-size: 35px;&quot;&gt;Multiplication using addition&lt;/font&gt;" style="whiteSpace=wrap;html=1;fillColor=#0050ef;fontColor=#ffffff;strokeColor=#001DBC;fontSize=35;" vertex="1" parent="7">
                    <mxGeometry y="20" width="760" height="50" as="geometry"/>
                </mxCell>
                <mxCell id="9" value="Enter the 2 integers" style="text;html=1;align=center;verticalAlign=middle;resizable=0;points=[];autosize=1;strokeColor=none;fillColor=none;fontSize=35;" vertex="1" parent="7">
                    <mxGeometry y="100" width="330" height="60" as="geometry"/>
                </mxCell>
                <mxCell id="10" value="Multiply" style="whiteSpace=wrap;html=1;fontSize=35;fillColor=#0050ef;fontColor=#ffffff;strokeColor=#001DBC;" vertex="1" parent="7">
                    <mxGeometry y="260" width="180" height="50" as="geometry"/>
                </mxCell>
                <mxCell id="12" value="" style="endArrow=none;html=1;fontSize=35;" edge="1" parent="7">
                    <mxGeometry width="50" height="50" relative="1" as="geometry">
                        <mxPoint x="240" y="200" as="sourcePoint"/>
                        <mxPoint x="440" y="200" as="targetPoint"/>
                    </mxGeometry>
                </mxCell>
                <mxCell id="14" value="Integer 2" style="text;html=1;align=center;verticalAlign=middle;resizable=0;points=[];autosize=1;strokeColor=none;fillColor=none;fontSize=15;fontColor=#4D4D4D;" vertex="1" parent="7">
                    <mxGeometry x="250" y="170" width="80" height="30" as="geometry"/>
                </mxCell>
                <mxCell id="13" value="Integer 1" style="text;html=1;align=center;verticalAlign=middle;resizable=0;points=[];autosize=1;strokeColor=none;fillColor=none;fontSize=15;fontColor=#4D4D4D;" vertex="1" parent="7">
                    <mxGeometry x="20" y="170" width="80" height="30" as="geometry"/>
                </mxCell>
                <mxCell id="16" value="" style="shape=image;verticalLabelPosition=bottom;labelBackgroundColor=default;verticalAlign=top;aspect=fixed;imageAspect=0;image=data:image/png,iVBORw0KGgoAAAANSUhEUgAAARMAAAC3CAMAAAAGjUrGAAAB11BMVEX////9zloPw/b/0FMAr+cAu/aQsaje4/6tw/0HrPj/z1YAot7Bv4IAxfYAt/YAquJJn/nBzv2suJiWs6UAvvXw+v625/t81vj5/f/m9v65GzHs+P0AzP8PpdkAAACxupbx8fHe3t7n5+fGxsbQ0ND19fWYmJjUMzLEIzH+0mo1NTVJSUlYWFhQUFCOjo7/+/P+4qS6uromJiZ1dXVjY2Pjh1KzAB2oqKhAQEBvb2+IAAD9twD+3pL/89syMjLX19fZNTDjckfH0NqCKTXxzJ7+2IGEhIQXFxewsLBlplDpll7ifUzeQjPolF2jvn1/ullBkEO2AAD13bevAB+Yk5v9wzr9vyz+6LTryGvOw3Y/pMIfoMraxnG6vomctpuQsvwuoPhp0/me4/rN8P3BrquBSj7U2smGV1C2saKQvGuHq3HNureYyGiXtYd9pGtHoT3ytazulo3nn52pcnF3Ty5OiEOOi2reva3HXzdvCxCQESC8QlDAV2LprnbtuIS4aHDFg2XgYD7DdUCyXDyIFybFFwWkh4mjVVSlPT2oLi6cYGZ4OyrP3L90uFbqzNHurZSbSy/WsrbMoZSrXlCcAACYb3CCRk5hqreSzbhPzd5+zcpJzOOSzbqQG6grAAAM8UlEQVR4nO2ciX/aRhqGB+ReItRpShJiO0QnsbhB2IgYTNKEo7F7xKmN3Tpunbjdw+12j3YPb93dtE26m+52d7tJz/1j9xuJQzCSkGPXCDqvA4w+XsYzj74ZRvOTgxBKZxQflSElk0agMsMOuyUeEsuUIUuYYTfDY2LSKEOzpFdsBtG5pF8KGnYLPKhDMmFZhm1Ln6u7x7hwJE08dh2MCdsn5dSFrk6ts+x6f8AL+hGZsIyycaJXFwJmbZ04sdUf8IA2lAOuNlwzYX1brwcInTdrsu/4POkfjl6/dSAqbpkwG28EQv6gv1fB/oAXFfRPBN7YPMAyzCUT5lQgNAr9t9NE4JZ7KO6YsLcCRI6MlkKBDdfDxxUTVjk/0lkCCk684RaJOybMk5MdJCPLJrDldvS4Gzvn2xUHQ0+MmtpnMeQ6UdwwYU8EWkSePfn0yOnNt9qJsulyRnHFZGvSqPWJN9EI6qmTRqYEbh0hE+b5CSNNTg67e4+np0N66ydPuZxQfgpMnntWbz5lYhJlQooyIUWZkKJMSFEmpCgTUpQJKcqEFGVCijIhRZmQokxIUSakKBNSlAkpyoQUZUKKMiFFmZCiTEhRJqQoE1KUCSnKhBRlQooyIUWZkBoWEzkmIb7u0DBN6AvE+FZBLFrVJyLJKt75NNdzWFvMZW29Q8sTqS7nAAuHZA5xMo7wMhKg34Ksd36R18sCEgAOB+Ucj3RMgpg3vBDGDlnA3RUjnFTkIGZ8msMvuoODIP40rhrxAgI/hCNIyHmPCYpGUiiuxsRsHhUb0IGcqkpFNY8ixXgN3tby+QSKJAoFVS0IiVoMIOVT0OVFNa6imLpYSUrQM7FYiKl1gJKvq1KuVpf4eBSQoWQin0R1WYpzEbVehHKuCNUVU4lKYTEB9kRUjXqQCYogKY4qSRgKRcjjFHQYZQt1VOd4DecJB+c2wqFIo6AhsVHntLjuyAOHrIqyqlhraNliJQpkJYwUSQkUbai17CJkRFJCOS4nS0nglirgMtQk5hoptYFrkWONqP1IGyoTfhGJCRgKCWBSUBFSo0IdRbgKZpKrQCkio4jECYUiV+diKQ2GmBhHjSJ8pFBDMU3QFhEwAQCIB8J5lGrUonicYUyYQzYJrFINKNd5FOHrgiAUcH5ISfj1sgeZ5GRUi2u8rCU0PN8l4qqoqRq0n4cWo2RRS+F2i1oiKkCc04QCjufjRRUVk3EOpWooX0DRKEpI2L+YLUKecMlEAlcmoUWU0hJ5LoZSWTnGaUUtiqLxpNjQx0xRixW8mCeeFWVCijIhRZmQokxIeZdJSrJ7h1f7I1H7hfpjyLtMJOOCJ0p+Z3L9tGopWGsUUof5bWZ5l4laiaqayudiKSGpweIfpVSthgrJeEXIy/l8o5BIAAk+rmWzdVjg8LnFVF5ACQTvJjT7hftIM0lINVi0cakoiouoDklTxCVOaOR5jYvw+B+4YiIs7PA6GEUBWFSKSLC+L+BV8JgyaQATGDs5AWnQx6KI1KyaShUFjYOL2koNbydEBHg7L2ImKcRpeTEfx4vYhDiWTOISnO+IkM0VCskUvgJSk9E6l4yqeT4HV3ZyLRsDJtFEKomSmIBYj6JiHC6ZUVaLLnL2lzMjzETAGyNwPVepIF6fVItZiYOuC3g/BOK8qE/CFRFb9ZKEOA7h3RRelBFvX/PoMiFk/+V8xBohJscmyoQUZUKKMiFFmZCiTEhRJqQoE1KUCSnKhNRxMznTr2m7loUPYz19GOvxMrkT2j7bq+3QWevGnzmc9fYhrMfK5FzoDtnMoGXz74TOHZM17O+3HiuTbauGTvvDFtHtMxbBcwewBi2CaNvinJDWY2USNJ2lnYpVtCO/2drZC/FbTSnmoMlqNaWETEx3BKso1rCYcG8L77wjODCZNlm5ttWaSbf3ws+61gFMTFavMNn9+S/effeXrpiYrIOY7GDre66YmKyeYfKrF198/x13TLrWgUxM1kFMulYvMOF+/Zvf/u6DDz/8PUGKYNJndWLSb3Vg0mf1AJM/XJ/746U/7c1enP8zN4CJySoPYNK1fiQPYNJvHT6T3f3yyrX9pcuXL87Of+TMxLBeWe5Y7Znsfqxb9Vr/4syEsA6fyV+v7+/vX78CLZqdulFxZGJY7xpW3olJ2Gx9KDgx6bHOC55g8sn1uaWlpeWLF2enpuZ3nZiECastE9mw6v1sWe2YcLr1SssqeYXJ3NJyq0k7g5h0rQOZdK3iICZzOui2dfhMPn1p7kqr8UaT7Jn0WCUnJr3WihMTucfKe4LJ75aXoUVGky6FnZjoVtz6KWztRK2YGNZWrXudqBUT9HnLimv9rBMdKpPKveXOWbrfiVoykfqt9kxEwmrLxGzd8QYT9OByO032ZGcmYO2c0EHrk8/1Wk1W+/VJ13o17BEm8t9aZ+lSxRS1ZNK2zrasDky4v7ese7wpasmkbZ1qWb3AhH9wc+/qZ5euFl4AcU5MTvdZHZjIlQfzPVZ7JnLl84e6tYGt8nCZtDZFwmFB4AReAOG/3HFgEu6zOjDRrdMmqz2T/lq9wKRPg66LB0Utez94T8k+Spl4Yj4x9LZkFbXs/dsVq6hl77+oWEUte/8FbxXFGhYT/v4/Xn75lCsmla51EBOzdQCT3a7VK0x2L7zyyj/fc8Vkp2sduM+GrVuumOy817F6g4mMdj989dX3ORdMDOuLnAsmMtrBVtkFkx6rB5jI/7p778be3gcffPTlICb9Vqf1Sb/VYX3SZx0+E3n/2rX9T/89C+vrG/9xZtK1zhpWeyYcYbVlgq3XWw340htMvtpfuXbt4yv6Jce87MikY52dnZ0POzIxWaduhh2ZfPVx1zoV9gSTT66/NDe31Nr6G7TPplv1K0bn/RPZsC6brLb7Jz3WikeYzC21kLjYZ1uau+t2n61b68C9x7meWj3BBLdIv1ifzw5i0rWKg5h0rY55whHW4TP579KVu5dbF+sPeScm2LrcsQpOTCystvv2n5qsl7yxb7/T3eaautqJWjIxW7/uRC2Z3L/csc5+3YlaMemxPuhEh8pEftjZOH2YdWbCmayiMxPSastEuNG1St5ggnbvtXdDH5miVkwgUXqtDms2wmq/Ztu5d9G8c+sFJmjnxsX5+Zs357/mOOd9e8jztvU057w+6VofnNb/ixmntX3L+vCRYfUAE25afHT/tdcevfZCa5fQionZer9rtb9PibBaMjG2bqezPdahMjlrdePiHcs7z34cq+UNdYT1WJmc9t8mNrruhKxu0bOxWt2ih6YPYA2dcWE93vtjp7f9/QpaIkHonIXVsp9Hbz3u+6hP98u67UO10vvtSVEmpCgTUpQJKcqEFGVCijIhRZmQokxIUSakKBNSlAkpyoQUZUKKMiFFmZCiTEhRJqQoE1KUCSnKhBRlQooyIUWZkKJMSFEmpDpMWMqkLZonpJ5+4ujzhN2a1Cv1P/PcsLv3WDoZNJhcOEomJwIGk+Bbbz41cnruZMhofWDjCJn41s/7W1BCz4ycnjWyxB86746ISybMNxP+kdfkky6nWHdM2M3AsHt0aIUC6y6Hjjsm8M0z8lACbr+J3TKB0RPwB4fdrcMo4HrkuGaCM2VidKlMBLbcI3HNxMdsfBMITE6MoCYDgW82D4DEPRMfy6zfev7JEdTWLYVxO70ekAlQYZmR1IGAHJDJT0WUCSnKhNR4MmEPPIeYNT5MFlY7RXb92w3fQb59ezU2TNiFNhTWx3w7MzPz3WOnytgwYRYWFhiWXV31bfpWvwMmwVai9KJhXeTP2DBZXTC0tjET/B6QzHxvzClss2qm0qyuKMRnq72HY8KEXVtYW1AyOFfwuLmzPbP9/SYkBasoqMQoCsv6FFhz4iNUhReMyUDFKlW21FvZWDBhcX6k16orMKcwPwCT2zPbCF5OME2URqUyQk0FClV8VEXVcjpdrZZAVQUepQwum1NlPJisAZTS2gK7uuBjgMX2NjzgdXMVZVZRE7FV1CyvlcuQMpAnGbSSXqn6lCpT8gEO/ZUtmQbYWDDRZ1gfpINvgWU3t747i9A5PKUwDHQeGJSa8KSkV9LNqs6k1KyWfHjMlBRfyRg7Y8gElicLK2mYT9ZgvbY5c/vcbWOWrabL5WoGxgpTTpd9JXxUVpp47GAm+tjxleDAN3ZjB2ut9b3TWp3MrK9f2IA5Fl8Ws8aj9cTgoDHHwg/r0x89Gicmqz52dQ2Y4NXJD0DA1FclA189MKeyGIMhBWYTo6CwvVjGiEl3Mbbx7Q//61masaVmM+PLZDLNDC7hn1KpmVmBJ3wM8bEcO+ZTzfbvI7HVTLXJNEtVQJHBT3AML/jIeKqOJZMBghHSGTX6gPH1HI7n2DlCIXL1/1OXgjKH2X0ZR7EZlH78vZfxFJNGqHyofbpxE8uU8W086QydU9pSMpAl/wfFIrzyxrEM6AAAAABJRU5ErkJggg==;" vertex="1" parent="7">
                    <mxGeometry x="480" y="100" width="275" height="183" as="geometry"/>
                </mxCell>
                <mxCell id="11" value="" style="endArrow=none;html=1;fontSize=35;" edge="1" parent="1">
                    <mxGeometry width="50" height="50" relative="1" as="geometry">
                        <mxPoint x="40" y="240" as="sourcePoint"/>
                        <mxPoint x="240" y="240" as="targetPoint"/>
                    </mxGeometry>
                </mxCell>
            </root>
        </mxGraphModel>
    </diagram>
</mxfile>